<svg width="500" height="384" viewBox="0 0 500 384" fill="none" xmlns="http://www.w3.org/2000/svg">
<path d="M457.912 274.516L473.529 272.745C476.913 265.216 478.409 256.975 477.885 248.737C469.396 260.706 451.436 260.514 439.502 269.053C435.8 271.744 432.751 275.235 430.582 279.265C428.412 283.295 427.177 287.761 426.969 292.333L421.812 302.216C429.156 303.02 436.588 302.222 443.595 299.878C450.601 297.533 457.016 293.697 462.398 288.635C465.389 285.764 468.006 282.529 470.189 279.005C464.043 277.144 457.912 274.516 457.912 274.516Z" fill="#F2F2F2"/>
<path d="M446.021 252.025L459.21 243.475C458.881 235.227 456.544 227.184 452.401 220.044C450.141 234.543 433.981 242.381 427.107 255.346C424.994 259.406 423.822 263.889 423.678 268.464C423.533 273.039 424.42 277.587 426.272 281.772L426.064 292.918C432.996 290.362 439.292 286.334 444.518 281.11C449.743 275.887 453.774 269.593 456.333 262.661C457.73 258.759 458.63 254.696 459.012 250.568C452.681 251.643 446.021 252.025 446.021 252.025Z" fill="#F2F2F2"/>
<path d="M388.766 356.661C414.904 356.661 436.092 335.472 436.092 309.335C436.092 283.198 414.904 262.009 388.766 262.009C362.629 262.009 341.44 283.198 341.44 309.335C341.44 335.472 362.629 356.661 388.766 356.661Z" fill="white"/>
<path d="M388.767 357.239C379.292 357.239 370.031 354.429 362.153 349.166C354.275 343.902 348.135 336.421 344.51 327.667C340.884 318.914 339.935 309.282 341.783 299.99C343.632 290.697 348.194 282.162 354.894 275.462C361.593 268.763 370.129 264.201 379.421 262.352C388.713 260.504 398.345 261.452 407.098 265.078C415.852 268.704 423.333 274.844 428.597 282.721C433.861 290.599 436.67 299.861 436.67 309.335C436.656 322.035 431.604 334.212 422.624 343.192C413.643 352.173 401.467 357.224 388.767 357.239ZM388.767 262.587C379.521 262.587 370.483 265.329 362.795 270.466C355.107 275.602 349.115 282.904 345.577 291.446C342.039 299.988 341.113 309.387 342.917 318.455C344.721 327.524 349.173 335.853 355.711 342.391C362.249 348.929 370.579 353.381 379.647 355.185C388.715 356.989 398.115 356.063 406.657 352.525C415.199 348.987 422.5 342.995 427.636 335.307C432.773 327.619 435.515 318.581 435.515 309.335C435.501 296.941 430.571 285.059 421.807 276.295C413.043 267.531 401.161 262.601 388.767 262.587V262.587Z" fill="#3F3D56"/>
<path d="M385.223 328.249C385.122 328.249 385.022 328.246 384.921 328.241C384.029 328.198 383.158 327.962 382.366 327.551C381.574 327.14 380.881 326.562 380.333 325.857L372.424 315.689C371.924 315.047 371.556 314.314 371.341 313.529C371.125 312.745 371.066 311.926 371.166 311.119C371.267 310.312 371.526 309.533 371.928 308.826C372.33 308.119 372.867 307.499 373.509 306.999L373.794 306.778C374.436 306.278 375.17 305.91 375.954 305.694C376.738 305.478 377.557 305.419 378.365 305.52C379.172 305.62 379.951 305.879 380.658 306.282C381.365 306.684 381.986 307.222 382.485 307.864C382.885 308.377 383.39 308.797 383.967 309.097C384.544 309.397 385.179 309.568 385.829 309.6C386.478 309.631 387.126 309.522 387.73 309.28C388.333 309.038 388.877 308.669 389.325 308.197L405.383 291.244C406.513 290.053 408.07 289.36 409.711 289.315C411.352 289.27 412.944 289.878 414.138 291.006L414.401 291.257C414.991 291.816 415.466 292.486 415.797 293.229C416.129 293.971 416.311 294.772 416.333 295.585C416.355 296.398 416.216 297.207 415.925 297.966C415.634 298.726 415.197 299.421 414.637 300.011L389.717 326.315C389.139 326.926 388.442 327.413 387.669 327.745C386.897 328.078 386.064 328.249 385.223 328.249V328.249Z" fill="#09B342"/>
<path d="M364.009 369.814L357.446 370.545L351.227 345.081L360.913 344.001L364.009 369.814Z" fill="#A0616A"/>
<path d="M407.251 255.333C407.047 255.13 406.826 254.932 406.606 254.744C404.912 253.339 403.142 252.029 401.304 250.818C399.225 249.433 396.885 248.018 394.238 246.558C392.957 245.851 391.603 245.128 390.176 244.391C389.462 244.022 388.726 243.65 387.97 243.275C387.938 243.256 387.905 243.239 387.871 243.223L387.652 243.112L371.724 256.261L370.593 257.15L373.527 260.768C373.527 260.768 373.271 263.644 373.277 263.646L370.365 270.914L370.333 270.929L359.955 275.665L349.262 280.547L343.518 283.171C342.186 283.778 340.988 284.643 339.994 285.717C339 286.792 338.23 288.053 337.728 289.428C337.199 290.855 336.961 292.374 337.026 293.895C337.091 295.416 337.458 296.909 338.105 298.287C338.234 298.568 338.378 298.849 338.531 299.12L340.918 314.126C342.344 323.101 345.116 331.81 349.141 339.959L352.786 354.006L353.34 353.728L361.584 349.598L363.762 348.51L364.173 339.071C364.22 337.996 364.227 336.914 364.188 335.834C364.132 334.068 363.963 332.306 363.683 330.561L358.956 301.128C359.795 300.786 360.622 300.442 361.438 300.097C365.221 298.514 368.803 296.914 372.183 295.297C383.176 290.043 392.132 284.589 399.449 278.68C401.505 277.023 403.433 275.327 405.234 273.592C405.896 272.958 406.541 272.317 407.168 271.671C407.317 271.521 407.462 271.374 407.605 271.223C408.894 269.871 409.823 268.217 410.307 266.413C410.791 264.61 410.815 262.713 410.377 260.897C409.886 258.783 408.802 256.852 407.251 255.333V255.333Z" fill="#2F2E41"/>
<path d="M363.475 365.356L356.37 366.142L355.255 366.264L355.981 370.483L347.724 378.549C347.315 378.948 347.045 379.466 346.952 380.029C346.859 380.592 346.949 381.17 347.208 381.679C347.467 382.187 347.882 382.599 348.392 382.855C348.902 383.111 349.481 383.197 350.043 383.101L361.769 381.092L363.073 376.573L364.578 380.611L368.994 379.855L365.203 365.167L363.475 365.356Z" fill="#2F2E41"/>
<path d="M370.237 219.254L376.32 212.802L367.739 194.026L366.462 187.43C366.296 186.574 365.908 185.775 365.337 185.115C364.766 184.455 364.032 183.957 363.208 183.669C362.384 183.382 361.499 183.316 360.641 183.478C359.784 183.64 358.984 184.024 358.321 184.592V184.592C357.339 185.434 356.723 186.624 356.601 187.911C356.48 189.199 356.864 190.483 357.672 191.493L362.411 197.416L370.237 219.254Z" fill="#A0616A"/>
<path d="M376.32 209.914L369.387 216.847L370.713 226.985C371.136 228.308 371.893 229.5 372.911 230.444C373.93 231.389 375.175 232.054 376.526 232.376V232.376C378.192 232.773 379.942 232.628 381.52 231.964C383.099 231.3 384.425 230.15 385.306 228.681L400.902 201.95C402.007 200.108 402.348 197.907 401.852 195.817C401.357 193.727 400.063 191.913 398.248 190.764V190.764C397.272 190.146 396.177 189.74 395.034 189.573C393.891 189.406 392.725 189.482 391.613 189.796C390.501 190.109 389.468 190.653 388.58 191.392C387.692 192.131 386.97 193.049 386.46 194.086L376.941 214.369L376.32 209.914Z" fill="#E6E6E6"/>
<path d="M369.336 312.226C368.977 312.591 368.618 312.951 368.254 313.313C367.532 314.035 366.798 314.75 366.063 315.457C365.693 315.811 365.319 316.166 364.948 316.515L364.951 316.528L364.927 316.538L364.919 316.545L364.302 316.863L362.767 314.602L362.059 313.561L361.059 312.086L359.226 309.388L349.575 295.183L358.23 290.715L358.912 292.041L358.916 292.04L359.253 292.697L365.583 304.962L366.875 307.469L366.916 307.545L367.692 309.042L368.362 310.34L369.11 311.79L369.336 312.226Z" fill="#A0616A"/>
<path d="M367.547 307.622L361.522 311.469L360.576 312.072L363.093 315.535L359.255 326.421C359.065 326.959 359.052 327.544 359.217 328.09C359.383 328.636 359.719 329.114 360.177 329.456C360.634 329.797 361.188 329.983 361.759 329.987C362.329 329.991 362.886 329.812 363.348 329.477L372.976 322.49L372.148 317.86L375.283 320.816L378.91 318.185L369.013 306.688L367.547 307.622Z" fill="#2F2E41"/>
<path d="M158.355 94.604L162.968 79.5789C157.417 73.4695 150.459 68.8075 142.697 65.9977C150.28 78.5607 142.932 94.9493 145.994 109.301C146.983 113.769 148.966 117.958 151.794 121.556C154.622 125.155 158.224 128.071 162.332 130.088L169.333 138.763C173.004 132.35 175.24 125.218 175.889 117.858C176.537 110.498 175.583 103.085 173.09 96.1296C171.653 92.2415 169.733 88.5497 167.373 85.1415C163.213 90.0325 158.355 94.604 158.355 94.604Z" fill="#F2F2F2"/>
<path d="M132.987 96.5238L130.415 81.0181C122.722 78.0255 114.415 76.9562 106.215 77.9028C118.605 85.7653 119.337 103.711 128.478 115.19C131.356 118.749 134.999 121.614 139.135 123.573C143.271 125.533 147.795 126.536 152.372 126.509L162.507 131.151C162.932 123.775 161.753 116.394 159.051 109.517C156.35 102.641 152.189 96.4314 146.856 91.3174C143.836 88.4781 140.47 86.0305 136.839 84.0322C135.296 90.2652 132.987 96.5238 132.987 96.5238Z" fill="#F2F2F2"/>
<path d="M221.285 50.9858L226.024 45.0628C226.832 44.0529 227.216 42.7686 227.095 41.481C226.973 40.1934 226.357 39.0031 225.375 38.1614C224.712 37.5935 223.912 37.2093 223.055 37.0475C222.197 36.8856 221.312 36.9516 220.488 37.239C219.664 37.5263 218.93 38.0249 218.359 38.6849C217.788 39.3449 217.4 40.1432 217.234 41L215.957 47.5953L211.114 60.673L216.926 63.5791L221.285 50.9858Z" fill="#FFB8B8"/>
<path d="M206.755 67.9384L197.236 47.6556C196.726 46.6188 196.004 45.7009 195.116 44.9616C194.228 44.2224 193.195 43.6784 192.083 43.365C190.971 43.0517 189.805 42.9759 188.662 43.1428C187.519 43.3097 186.424 43.7154 185.447 44.3335V44.3335C183.633 45.4828 182.339 47.2962 181.844 49.3863C181.348 51.4764 181.689 53.6775 182.794 55.5195L198.389 82.2507C199.271 83.7194 200.597 84.8692 202.175 85.5336C203.754 86.1979 205.503 86.3422 207.17 85.9455V85.9455C208.521 85.6237 209.766 84.9583 210.785 84.0137C211.803 83.0691 212.56 81.8774 212.982 80.554L218.864 62.1261L211.114 58.2512L206.755 67.9384Z" fill="#2F2E41"/>
<path d="M224.716 61.4105L218.48 60.8876C217.501 60.8045 216.595 60.3364 215.961 59.5861C215.327 58.8359 215.016 57.8647 215.097 56.8857L217.496 28.2726C217.58 27.2937 218.048 26.3878 218.798 25.7537C219.548 25.1195 220.519 24.8088 221.498 24.8898L227.734 25.4127C228.713 25.4959 229.619 25.964 230.253 26.7142C230.888 27.4645 231.198 28.4357 231.117 29.4147L228.718 58.0278C228.635 59.0066 228.167 59.9125 227.416 60.5467C226.666 61.1809 225.695 61.4915 224.716 61.4105Z" fill="#3F3D56"/>
<path d="M220.646 26.2881C220.118 26.2444 219.595 26.4119 219.191 26.7536C218.786 27.0953 218.534 27.5835 218.489 28.111L216.09 56.724C216.046 57.2516 216.214 57.775 216.556 58.1793C216.897 58.5836 217.386 58.8358 217.913 58.8807L224.149 59.4035C224.677 59.4472 225.2 59.2798 225.604 58.938C226.009 58.5963 226.261 58.1081 226.306 57.5806L228.705 28.9676C228.749 28.44 228.581 27.9166 228.239 27.5123C227.898 27.108 227.409 26.8558 226.882 26.811L220.646 26.2881Z" fill="#09B342"/>
<path d="M207.888 87.1644H181.943V113.109H207.888V87.1644Z" fill="#FFB8B8"/>
<path d="M212.934 84.9455C213.701 84.9455 214.324 84.3233 214.324 83.5557C214.324 82.788 213.701 82.1658 212.934 82.1658C212.166 82.1658 211.544 82.788 211.544 83.5557C211.544 84.3233 212.166 84.9455 212.934 84.9455Z" fill="#2F2E41"/>
<path d="M236.092 196.754L243.011 196.753L246.304 170.063L236.091 170.064L236.092 196.754Z" fill="#FFB6B6"/>
<path d="M234.376 193.34L245.314 192.688V197.374L255.714 204.557C256.228 204.911 256.615 205.421 256.818 206.011C257.022 206.601 257.031 207.241 256.846 207.837C256.66 208.433 256.288 208.954 255.786 209.324C255.283 209.694 254.675 209.893 254.051 209.893H241.028L238.783 205.257L237.907 209.893H232.996L234.376 193.34Z" fill="#2F2E41"/>
<path d="M184.737 215.807L190.67 219.368L207.229 198.178L198.472 192.922L184.737 215.807Z" fill="#FFB6B6"/>
<path d="M185.023 211.997L194.737 217.067L192.326 221.085L197.546 232.596C197.804 233.164 197.873 233.8 197.744 234.411C197.615 235.021 197.294 235.575 196.828 235.99C196.362 236.406 195.775 236.661 195.154 236.72C194.532 236.778 193.908 236.636 193.373 236.315L182.207 229.613L182.669 224.483L179.531 228.006L175.321 225.479L185.023 211.997Z" fill="#2F2E41"/>
<path d="M45.5985 213.484C45.5302 213.484 45.4619 213.483 45.393 213.48C44.5886 213.451 43.8033 213.228 43.1036 212.83C42.404 212.432 41.8109 211.871 41.3746 211.195C38.1073 206.311 34.0976 201.968 29.4905 198.321C26.7014 196.092 23.7869 194.019 20.9686 192.015C13.6976 186.845 6.85023 181.976 3.04921 175.248C-5.23813 160.577 4.52144 140.142 18.4639 130.978C34.1023 120.7 54.6721 119.088 74.5711 118.877C76.6392 118.855 78.7085 118.844 80.779 118.844C116.633 118.858 152.411 122.129 187.673 128.618C199.398 130.781 211.672 133.432 221.534 139.863C231.339 146.256 237.298 156.324 236.717 165.512C235.868 178.926 221.648 188.949 208.7 191.57C196.358 194.066 183.537 192.379 169.964 190.593C166.967 190.199 163.869 189.791 160.805 189.437C127.507 185.588 64.9542 197.451 62.3078 197.958L59.6823 198.461L49.4951 211.57C49.0369 212.168 48.4468 212.651 47.7709 212.983C47.095 213.315 46.3516 213.487 45.5985 213.484V213.484Z" fill="#09B342"/>
<path d="M193.879 148.046H53.1391C52.327 148.046 51.5481 147.724 50.9738 147.15C50.3995 146.575 50.0769 145.796 50.0769 144.984C50.0769 144.172 50.3995 143.393 50.9738 142.819C51.5481 142.245 52.327 141.922 53.1391 141.922H193.879C194.691 141.922 195.47 142.245 196.044 142.819C196.618 143.393 196.941 144.172 196.941 144.984C196.941 145.796 196.618 146.575 196.044 147.15C195.47 147.724 194.691 148.046 193.879 148.046V148.046Z" fill="white"/>
<path d="M193.879 166.843H53.1392C52.7368 166.843 52.3382 166.765 51.9662 166.611C51.5942 166.458 51.2561 166.233 50.9712 165.949C50.6862 165.665 50.4601 165.327 50.3056 164.956C50.1512 164.584 50.0715 164.186 50.071 163.784C50.0706 163.381 50.1495 162.983 50.3032 162.611C50.4569 162.239 50.6823 161.901 50.9666 161.616C51.251 161.332 51.5887 161.106 51.9603 160.952C52.332 160.798 52.7304 160.718 53.1328 160.718H193.879C194.69 160.719 195.468 161.042 196.041 161.617C196.615 162.191 196.937 162.969 196.937 163.78C196.937 164.592 196.615 165.37 196.041 165.944C195.468 166.518 194.69 166.841 193.879 166.843Z" fill="white"/>
<path d="M69.5402 185.638H53.139C52.3276 185.637 51.5498 185.314 50.9765 184.74C50.4031 184.166 50.0811 183.388 50.0811 182.576C50.0811 181.765 50.4031 180.986 50.9765 180.412C51.5498 179.838 52.3276 179.515 53.139 179.514H69.5402C70.3516 179.515 71.1294 179.838 71.7027 180.412C72.2761 180.986 72.5981 181.765 72.5981 182.576C72.5981 183.388 72.2761 184.166 71.7027 184.74C71.1294 185.314 70.3516 185.637 69.5402 185.638V185.638Z" fill="white"/>
<path d="M208.806 105.681L181.067 102.371L181.866 107.63C181.866 107.63 163.082 122.766 175.941 139.465L182.148 145.519L181.577 148.364H185.564L185.991 151.797L203.14 165.992L204.125 168.896H206.949L205.569 172.199L192.837 201.81L203.385 206.728L222.812 169.486L217.836 158.261L199.934 135.604L227.66 146.556L228.133 148.96L230.682 148.477L230.19 152.015L235.6 179.854L247.06 178.333L245.882 143.694C245.793 141.8 245.205 139.964 244.177 138.372C243.15 136.779 241.719 135.487 240.03 134.626C234.155 131.609 212.455 123.225 212.455 123.225L208.806 105.681Z" fill="#2F2E41"/>
<path d="M197.696 45.0046L192.473 38.292L185.024 37.969L184.281 44.2823L180.59 45.9843C176.904 59.9861 176.335 74.6259 178.922 88.8716V88.8716C179.417 89.3373 179.778 89.9266 179.969 90.5787C180.16 91.2307 180.174 91.9219 180.008 92.581L179.769 93.5349L179.791 93.5699C180.577 94.8092 180.843 96.3077 180.533 97.7418V97.7418L173.785 109.732C188.115 115.572 198.62 104.681 208.351 90.4076L214.374 69.5593L197.696 45.0046Z" fill="#3F3D56"/>
<path d="M213.395 83.6017L214.802 69.536L196.13 41.897L195.363 42.4153L213.846 69.7776L212.473 83.5093L213.395 83.6017Z" fill="#2F2E41"/>
<path d="M192.838 37.7409C200.444 37.7409 206.611 31.5745 206.611 23.9678C206.611 16.361 200.444 10.1946 192.838 10.1946C185.231 10.1946 179.064 16.361 179.064 23.9678C179.064 31.5745 185.231 37.7409 192.838 37.7409Z" fill="#FFB8B8"/>
<path d="M194.609 7.16995L192.881 7.22479L192.294 7.24341L185.717 7.45211C179.887 7.63709 175.329 13.1039 175.537 19.6626C171.278 24.2193 172.774 29.7111 176.454 35.5578C182.778 36.1415 188.991 37.594 194.919 39.874L195.637 36.3032L197.422 40.9193C198.9 41.5786 200.369 42.3042 201.827 43.0962C199.907 35.2998 198.971 27.4904 199.925 21.3707L202.937 21.2751L202.832 17.979L203.959 21.2427L209.42 21.0694C209.36 19.1843 208.929 17.3294 208.153 15.6107C207.376 13.8919 206.268 12.343 204.893 11.0523C203.518 9.76162 201.902 8.75445 200.137 8.08831C198.373 7.42217 196.494 7.11012 194.609 7.16995V7.16995Z" fill="#2F2E41"/>
<path d="M182.717 12.9723C186.3 12.9723 189.203 10.0683 189.203 6.48614C189.203 2.90395 186.3 0 182.717 0C179.135 0 176.231 2.90395 176.231 6.48614C176.231 10.0683 179.135 12.9723 182.717 12.9723Z" fill="#2F2E41"/>
<path d="M225.33 57.9191L230.068 51.9961C230.876 50.9862 231.26 49.702 231.139 48.4143C231.018 47.1267 230.401 45.9365 229.419 45.0948V45.0948C228.757 44.5268 227.957 44.1427 227.099 43.9808C226.241 43.8189 225.356 43.885 224.532 44.1723C223.708 44.4596 222.974 44.9582 222.403 45.6182C221.832 46.2782 221.444 47.0766 221.278 47.9334L220.002 54.5286L215.158 67.6063L220.971 70.5125L225.33 57.9191Z" fill="#FFB8B8"/>
<path d="M210.799 74.8718L201.28 54.589C200.771 53.5521 200.048 52.6342 199.16 51.895C198.273 51.1558 197.239 50.6118 196.127 50.2984C195.015 49.985 193.85 49.9093 192.706 50.0762C191.563 50.243 190.468 50.6487 189.492 51.2669V51.2669C187.677 52.4162 186.384 54.2296 185.888 56.3197C185.392 58.4098 185.733 60.6109 186.839 62.4529L202.434 89.184C203.315 90.6527 204.641 91.8026 206.22 92.4669C207.799 93.1313 209.548 93.2755 211.214 92.8788V92.8788C212.565 92.5571 213.811 91.8916 214.829 90.947C215.847 90.0024 216.605 88.8107 217.027 87.4874L222.908 69.0594L215.158 65.1846L210.799 74.8718Z" fill="#2F2E41"/>
<path d="M410.99 267.072C410.391 268.034 409.778 268.993 409.161 269.942C408.015 271.71 406.837 273.452 405.63 275.168C405.63 275.172 405.625 275.172 405.621 275.176C404.916 275.829 404.138 276.397 403.301 276.87C403.266 276.896 403.227 276.914 403.192 276.936C402.576 277.276 401.921 277.539 401.24 277.719C400.995 277.78 400.746 277.841 400.501 277.903C399.617 278.113 398.741 278.292 397.871 278.45C396.321 278.725 394.79 278.922 393.267 279.045C393.144 279.058 393.022 279.067 392.899 279.075C386.637 279.535 380.541 278.795 374.178 277.583C371.036 276.988 367.828 276.275 364.507 275.535C363.421 275.29 362.332 275.049 361.229 274.809C361.146 274.791 361.058 274.769 360.971 274.752C359.395 274.406 357.794 274.065 356.153 273.728C354.087 273.303 355.146 273.279 352.932 272.889C352.932 272.889 358.04 278.077 358.889 280.327C359.835 283.092 360.583 285.28 359.003 289.836L363.909 299.467L346.853 302.36C337.453 283.939 329.94 271.81 333.296 264.666C333.309 264.333 333.335 263.996 333.379 263.664C333.557 262.152 334.035 260.69 334.784 259.365C335.533 258.04 336.539 256.877 337.742 255.944C338.895 255.043 340.216 254.38 341.628 253.994C343.039 253.608 344.514 253.506 345.965 253.695L349.313 254.128L375.276 252.867L376.296 248.709L376.484 248.639L382.467 246.447L403.157 238.863L403.21 238.845L404.57 238.347L404.732 238.609C404.781 238.688 404.829 238.767 404.872 238.845C406.218 241.257 407.313 243.8 408.141 246.434C409.535 250.737 410.682 255.116 411.577 259.549C411.616 259.742 411.651 259.917 411.682 260.074L411.695 260.122C411.708 260.197 411.717 260.245 411.721 260.258C412.198 262.245 411.866 264.669 410.99 267.072Z" fill="#2F2E41"/>
<path d="M406.625 186.209L406.476 177.916L393.336 176.387L391.958 183.39L378.149 196.368C368.33 208.371 375.465 216.649 375.892 217.88L377.106 233.016L377.87 238.275L374.888 252.667L412.532 260.742C413.737 250.792 412.395 241.546 404.536 234.105L408.507 221.748C410.52 218.522 411.782 214.885 412.2 211.105L412.343 209.813C415.852 198.879 413.773 195.198 406.625 186.209Z" fill="#E6E6E6"/>
<path d="M425.06 160.289C425.069 160.503 425.073 160.718 425.073 160.928C425.069 163.246 424.517 165.53 423.462 167.593C422.406 169.657 420.878 171.441 419.001 172.801C417.124 174.161 414.952 175.057 412.662 175.417C410.372 175.776 408.03 175.589 405.827 174.87L403.127 173.991C403.105 173.982 403.078 173.978 403.057 173.969L398.606 172.516C398.591 172.328 398.594 172.139 398.615 171.951C391.976 169.116 401.153 159.799 403.433 152.801C403.787 151.712 391.6 152.526 392.177 151.593C392.05 151.528 391.924 151.462 391.805 151.396C393.864 148.148 396.908 145.642 400.491 144.245C404.075 142.848 408.011 142.634 411.726 143.633C411.822 143.655 411.923 143.686 412.019 143.712C420.666 143.926 425.209 149.952 425.209 157.777C425.208 158.616 425.159 159.455 425.06 160.289V160.289Z" fill="#2F2E41"/>
<path d="M417.568 163.369C416.407 166.923 413.884 169.87 410.551 171.563C407.219 173.256 403.35 173.556 399.796 172.398C399.394 172.266 399 172.117 398.615 171.951C395.38 170.565 392.782 168.019 391.33 164.814C389.878 161.608 389.677 157.976 390.768 154.63C391.114 153.565 391.587 152.545 392.177 151.593C393.989 148.659 396.814 146.491 400.116 145.5C403.419 144.508 406.971 144.762 410.099 146.213C413.227 147.664 415.715 150.211 417.091 153.373C418.468 156.535 418.637 160.091 417.568 163.369V163.369Z" fill="#A0616A"/>
<path d="M403.124 173.989C403.1 173.983 403.077 173.976 403.055 173.966L398.606 172.516C398.594 172.325 390.424 177.733 390.447 177.543C390.574 176.081 399.779 168.951 401.154 167.293C402.043 166.234 402.661 164.974 402.956 163.623C403.25 162.272 403.211 160.87 402.843 159.537C402.474 158.204 401.787 156.981 400.841 155.972C399.894 154.964 398.717 154.201 397.41 153.749C397.37 153.739 397.331 153.726 397.294 153.709C396.433 153.409 395.607 153.102 394.833 152.796C394.451 151.207 394.255 151.733 393.336 150.387C393.504 151.612 391.95 152.536 391.926 153.773C391.609 153.628 391.308 153.478 391.019 153.328C390.892 153.258 390.771 153.195 390.65 153.131C389.758 152.717 388.98 152.095 388.379 151.317C390.603 144.482 399.114 139.01 405.949 141.246L408.532 142.084C411.79 143.141 414.496 145.445 416.061 148.492C417.945 149.936 419.448 151.818 420.44 153.975C426.091 165.328 415.177 177.861 403.124 173.989Z" fill="#2F2E41"/>
<path d="M421.813 154.989C425.196 154.989 427.939 152.246 427.939 148.863C427.939 145.479 425.196 142.736 421.813 142.736C418.429 142.736 415.686 145.479 415.686 148.863C415.686 152.246 418.429 154.989 421.813 154.989Z" fill="#2F2E41"/>
<path d="M499.649 161.359C498.35 167.261 495.751 172.8 492.041 177.571C488.33 182.342 483.603 186.225 478.202 188.937C477.514 189.278 476.815 189.595 476.11 189.89C476.174 187.033 475.352 184.226 473.758 181.853C474.017 183.776 474.048 185.724 473.851 187.654C473.743 188.761 473.56 189.86 473.302 190.942C468.769 192.437 464.009 193.123 459.239 192.97C458.966 190.85 458.2 188.823 457.003 187.053C457.262 188.976 457.293 190.924 457.095 192.854C452.3 192.465 447.616 191.21 443.269 189.151C441.009 188.076 438.791 186.73 437.335 184.696C435.399 181.986 435.076 178.409 435.549 175.116C436.023 171.817 437.208 168.668 438.034 165.444C438.86 162.22 439.328 158.77 438.357 155.587C437.392 152.397 434.683 149.561 431.36 149.312C429.847 149.197 428.327 149.613 426.813 149.474C425.299 149.329 423.658 148.318 423.624 146.799L425.074 144.441C425.686 140.316 427.79 136.225 431.395 134.128C434.995 132.025 440.172 132.475 442.743 135.757C444.91 138.519 444.829 142.355 445.539 145.793C447.192 153.778 453.576 160.203 460.995 163.589C468.42 166.969 476.774 167.68 484.933 167.541C487.729 167.489 490.572 167.339 493.23 166.455C495.893 165.565 498.378 163.855 499.649 161.359Z" fill="#2F2E41"/>
<path d="M360.701 198.18L358.302 169.567C358.221 168.588 358.532 167.617 359.166 166.866C359.8 166.116 360.706 165.648 361.685 165.565L367.921 165.042C368.9 164.961 369.871 165.272 370.621 165.906C371.372 166.54 371.84 167.446 371.923 168.425L374.322 197.038C374.403 198.017 374.092 198.988 373.458 199.738C372.824 200.489 371.918 200.957 370.939 201.04L364.703 201.563C363.724 201.644 362.753 201.333 362.003 200.699C361.252 200.065 360.784 199.159 360.701 198.18V198.18Z" fill="#3F3D56"/>
<path d="M362.537 166.963C362.009 167.008 361.521 167.26 361.179 167.665C360.837 168.069 360.67 168.592 360.714 169.12L363.113 197.733C363.158 198.26 363.41 198.748 363.814 199.09C364.219 199.432 364.742 199.599 365.269 199.556L371.506 199.033C372.033 198.988 372.521 198.736 372.863 198.331C373.205 197.927 373.372 197.404 373.328 196.876L370.929 168.263C370.884 167.736 370.632 167.248 370.228 166.906C369.824 166.564 369.3 166.397 368.773 166.44L362.537 166.963Z" fill="#09B342"/>
<path d="M373.051 207.998L379.122 205.681L375.596 192.188L374.978 185.499C374.898 184.63 374.591 183.797 374.088 183.084C373.585 182.371 372.904 181.802 372.112 181.434C371.321 181.067 370.447 180.914 369.577 180.99C368.708 181.066 367.874 181.369 367.158 181.869V181.869C366.098 182.609 365.366 183.733 365.119 185.002C364.871 186.271 365.126 187.587 365.83 188.672L369.959 195.035L373.051 207.998Z" fill="#A0616A"/>
<path d="M379.362 203.271L371.267 206.36L375.297 225.279C375.586 226.638 376.221 227.899 377.141 228.939C378.061 229.98 379.235 230.765 380.547 231.219V231.219C382.166 231.779 383.921 231.808 385.558 231.303C387.195 230.799 388.628 229.786 389.65 228.411L407.813 203.354C409.095 201.63 409.652 199.474 409.366 197.345C409.079 195.216 407.972 193.284 406.279 191.96V191.96C405.369 191.249 404.32 190.737 403.199 190.457C402.077 190.178 400.91 190.138 399.773 190.34C398.635 190.542 397.553 190.981 396.596 191.629C395.64 192.277 394.83 193.119 394.22 194.1L382.742 213.342L379.362 203.271Z" fill="#E6E6E6"/>
<path opacity="0.2" d="M372.778 213.456L376.87 230.072L377.719 231.105C378.391 231.924 379.25 232.569 380.224 232.986C381.197 233.403 382.257 233.581 383.313 233.503C384.37 233.426 385.392 233.096 386.294 232.541C387.196 231.986 387.952 231.223 388.498 230.316L401.466 208.755L389.774 224.932C389.119 225.839 388.244 226.565 387.231 227.042C386.218 227.519 385.101 227.731 383.984 227.659C382.867 227.586 381.787 227.231 380.845 226.627C379.902 226.023 379.128 225.19 378.596 224.206L372.778 213.456Z" fill="black"/>
</svg>
