<svg width="470" height="439" viewBox="0 0 470 439" fill="none" xmlns="http://www.w3.org/2000/svg">
<path d="M42.0788 104.595H280.123V182.741H271.106V203.179L250.668 182.741H42.0788V104.595Z" fill="#E6E6E6"/>
<path d="M273.511 112.205H48.6909V174.722H273.511V112.205Z" fill="white"/>
<path d="M175.015 130.457H66.7698V133.742H175.015V130.457Z" fill="#29E768"/>
<path d="M255.432 141.821H66.7698V145.106H255.432V141.821Z" fill="#E6E6E6"/>
<path d="M255.247 153.185H66.7698V156.47H255.247V153.185Z" fill="#E6E6E6"/>
<path d="M238.044 209.19H0V287.337H9.01688V307.775L29.4548 287.337H238.044V209.19Z" fill="#E6E6E6"/>
<path d="M231.432 216.801H6.61235V279.317H231.432V216.801Z" fill="white"/>
<path d="M134.74 235.654H26.4947V238.939H134.74V235.654Z" fill="#29E768"/>
<path d="M215.157 247.018H26.4947V250.303H215.157V247.018Z" fill="#E6E6E6"/>
<path d="M214.972 258.381H26.4947V261.666H214.972V258.381Z" fill="#E6E6E6"/>
<path d="M238.044 -7.62939e-06H0V78.1457H9.01688V98.5842L29.4548 78.1457H238.044V-7.62939e-06Z" fill="#E6E6E6"/>
<path d="M231.432 7.60996H6.61235V70.1267H231.432V7.60996Z" fill="white"/>
<path d="M134.74 26.4633H26.4947V29.7482H134.74V26.4633Z" fill="#29E768"/>
<path d="M215.157 37.827H26.4947V41.1119H215.157V37.827Z" fill="#E6E6E6"/>
<path d="M214.972 49.1907H26.4947V52.4757H214.972V49.1907Z" fill="#E6E6E6"/>
<path d="M418.223 428.194L408.426 428.194L403.765 390.403L418.225 390.404L418.223 428.194Z" fill="#FFB8B8"/>
<path d="M420.722 437.691L389.131 437.69V437.29C389.131 434.029 390.427 430.902 392.733 428.596C395.038 426.29 398.166 424.995 401.427 424.994H401.428L420.723 424.995L420.722 437.691Z" fill="#2F2E41"/>
<path d="M404.448 399.781L395.331 403.369L377.155 369.91L390.611 364.616L404.448 399.781Z" fill="#FFB8B8"/>
<path d="M410.251 407.704L380.854 419.271L380.707 418.899C379.513 415.865 379.574 412.48 380.875 409.49C382.176 406.5 384.612 404.149 387.647 402.955L387.647 402.954L405.602 395.889L410.251 407.704Z" fill="#2F2E41"/>
<path d="M401.462 415.915L404.582 301.265L390.7 350.414L400.73 384.517L384.089 398.662L367.127 344.543L367.097 344.447L383.956 255.333L433.818 252.921L434.175 252.903L434.232 253.255C434.28 253.552 438.993 283.14 435.03 304.538C431.083 325.854 421.545 416.277 421.449 417.188L421.408 417.577L401.462 415.915Z" fill="#2F2E41"/>
<path d="M386.539 262.481L386.258 262.368L395.511 177.479L395.781 177.412C405.185 175.06 417.856 175.266 424.572 175.597C425.59 175.65 426.559 176.052 427.315 176.735C428.072 177.418 428.57 178.341 428.726 179.348L439.851 252.619L439.759 252.75C432.068 263.737 420.316 266.723 409.808 266.723C401.869 266.622 394.003 265.188 386.539 262.481Z" fill="#29E768"/>
<path d="M430.605 287.282L430.271 287.252L424.361 175.378L442.32 179.434C444.282 179.883 446.006 181.046 447.158 182.697C448.31 184.347 448.808 186.367 448.554 188.363L446.225 206.959L447.023 239.675C447.579 241.684 456.672 274.973 451.62 283.647C451.365 284.138 451.011 284.572 450.581 284.921C450.15 285.27 449.653 285.526 449.119 285.674C444.268 286.839 439.296 287.421 434.308 287.407C432.04 287.406 430.64 287.285 430.605 287.282Z" fill="#3F3D56"/>
<path d="M377.718 288.041C376.845 287.649 376.072 287.066 375.455 286.334C374.839 285.602 374.396 284.74 374.16 283.813C372.99 279.102 376.94 273.177 377.51 272.354L382.289 226.96L375.181 185.025C375.06 184.308 375.086 183.573 375.258 182.866C375.43 182.16 375.745 181.495 376.183 180.914C376.621 180.333 377.173 179.848 377.805 179.488C378.437 179.128 379.136 178.9 379.859 178.82L400.104 176.562L399.076 219.702C407.765 249.072 388.842 291.419 388.65 291.844L388.544 292.078H388.286C388.184 292.078 385.702 292.032 377.718 288.041Z" fill="#3F3D56"/>
<path d="M419.319 165.541C428.831 160.342 432.326 148.416 427.127 138.904C421.927 129.392 410.001 125.896 400.489 131.096C390.977 136.296 387.482 148.222 392.681 157.733C397.881 167.245 409.807 170.741 419.319 165.541Z" fill="#FFB8B8"/>
<path d="M432.379 267.036C432.203 265.954 432.266 264.848 432.563 263.793C432.861 262.739 433.386 261.763 434.101 260.933C434.817 260.104 435.706 259.441 436.705 258.992C437.704 258.544 438.79 258.319 439.885 258.335L446.679 242.616L457.239 244.415L447.333 266.479C447.183 268.317 446.365 270.037 445.033 271.312C443.7 272.588 441.947 273.33 440.103 273.399C438.26 273.468 436.456 272.858 435.032 271.685C433.609 270.512 432.665 268.858 432.379 267.036V267.036Z" fill="#FFB8B8"/>
<path d="M441.945 252.632L447.556 218.97L437.973 202.998L440.414 180.211L440.958 180.075C442.775 179.627 444.691 179.816 446.385 180.613C448.079 181.409 449.448 182.764 450.261 184.45L465.916 217.12L465.978 217.25L454.608 261.919L441.945 252.632Z" fill="#3F3D56"/>
<path d="M422.769 164.146C423.217 164.276 425.101 162.149 427.164 159.598C429.331 156.94 430.894 153.843 431.747 150.521C432.599 147.199 432.72 143.731 432.101 140.358C432.072 140.206 432.044 140.062 432.015 139.927C431.332 136.676 428.231 133.681 424.982 134.37C425.227 131.49 423.287 128.777 420.829 127.257C418.37 125.737 415.457 125.173 412.617 124.637C409.377 124.026 406.096 123.412 402.805 123.62C399.631 123.816 396.556 124.798 393.857 126.478C390.579 128.635 388.054 131.759 386.632 135.416C385.21 139.074 384.963 143.083 385.924 146.887C390.06 142.191 394.96 137.083 402.044 139.118C403.648 139.596 405.144 140.379 406.451 141.424C410.756 144.805 412.921 149.784 415.014 154.65C416.06 151.987 419.94 150.985 422.144 152.809C423.559 153.979 424.141 155.925 424.088 157.761C423.94 159.594 423.517 161.394 422.831 163.101" fill="#2F2E41"/>
<path d="M420.238 237.475H419.314V233.842C419.313 232.765 418.885 231.732 418.123 230.971C417.362 230.209 416.329 229.781 415.252 229.779H403.676C402.599 229.781 401.566 230.209 400.805 230.971C400.043 231.732 399.615 232.765 399.613 233.842V258.962C399.615 260.039 400.043 261.072 400.805 261.834C401.566 262.595 402.599 263.024 403.676 263.025H415.252C416.329 263.024 417.362 262.595 418.123 261.834C418.885 261.072 419.313 260.039 419.314 258.962V241.785H420.238V237.475Z" fill="#2F2E41"/>
<path d="M409.772 244.247C411.132 244.247 412.234 243.145 412.234 241.785C412.234 240.425 411.132 239.322 409.772 239.322C408.412 239.322 407.309 240.425 407.309 241.785C407.309 243.145 408.412 244.247 409.772 244.247Z" fill="white"/>
<path d="M411.781 251.597C411.313 250.607 410.633 249.731 409.789 249.032C408.946 248.333 407.96 247.827 406.9 247.551C405.84 247.274 404.732 247.233 403.654 247.431C402.577 247.629 401.556 248.06 400.663 248.695L386.147 239.611L378.475 247.086L399.155 259.627C400.321 261.056 401.971 262.007 403.792 262.301C405.613 262.595 407.478 262.21 409.035 261.22C410.591 260.231 411.73 258.704 412.236 256.931C412.743 255.157 412.581 253.259 411.781 251.597V251.597Z" fill="#FFB8B8"/>
<path d="M359.862 234.292L373.145 184.113C373.494 182.816 374.317 181.697 375.45 180.977C376.584 180.257 377.946 179.987 379.268 180.222L383.835 181.052L388.701 207.816L378.804 230.376L396.706 241.124L394.189 261.263L359.862 234.292Z" fill="#3F3D56"/>
<path d="M469.625 438.449H326.764C326.664 438.449 326.569 438.392 326.499 438.29C326.428 438.188 326.389 438.049 326.389 437.905C326.389 437.761 326.428 437.622 326.499 437.52C326.569 437.418 326.664 437.361 326.764 437.361H469.625C469.724 437.361 469.82 437.418 469.89 437.52C469.96 437.622 470 437.761 470 437.905C470 438.049 469.96 438.188 469.89 438.29C469.82 438.392 469.724 438.449 469.625 438.449Z" fill="#514F68"/>
</svg>
