<svg width="547" height="547" viewBox="0 0 547 547" fill="none" xmlns="http://www.w3.org/2000/svg">
<path fill-rule="evenodd" clip-rule="evenodd" d="M275 528C416.385 528 531 413.385 531 272C531 130.615 416.385 16 275 16C133.615 16 19 130.615 19 272C19 321.396 32.9903 367.525 57.2247 406.64L23.9707 523.029L140.36 489.775C179.475 514.01 225.604 528 275 528Z" fill="#3AD337"/>
<path d="M57.2247 406.64L72.6091 411.036L74.5536 404.23L70.8258 398.214L57.2247 406.64ZM23.9707 523.029L8.58632 518.634L0.674351 546.326L28.3662 538.414L23.9707 523.029ZM140.36 489.775L148.787 476.174L142.77 472.447L135.964 474.391L140.36 489.775ZM515 272C515 404.548 407.548 512 275 512V544C425.221 544 547 422.221 547 272H515ZM275 32C407.548 32 515 139.452 515 272H547C547 121.779 425.221 0 275 0V32ZM35 272C35 139.452 142.452 32 275 32V0C124.779 0 3 121.779 3 272H35ZM70.8258 398.214C48.1142 361.556 35 318.334 35 272H3C3 324.459 17.8665 373.494 43.6237 415.067L70.8258 398.214ZM39.3551 527.425L72.6091 411.036L41.8404 402.245L8.58632 518.634L39.3551 527.425ZM135.964 474.391L19.5752 507.645L28.3662 538.414L144.755 505.16L135.964 474.391ZM275 512C228.666 512 185.444 498.886 148.787 476.174L131.933 503.376C173.506 529.134 222.541 544 275 544V512Z" fill="white"/>
<path d="M431.364 271.213H415.727C415.727 210.847 366.785 162.024 306.273 162.024H290.636V142.214C295.392 139.475 299.34 135.536 302.085 130.792C304.83 126.048 306.274 120.666 306.273 115.189C306.271 109.711 304.824 104.331 302.077 99.588C299.33 94.8454 295.379 90.9079 290.622 88.1716C285.866 85.4352 280.471 83.9965 274.98 84C269.489 84.0035 264.096 85.4492 259.343 88.1916C254.59 90.934 250.644 94.8765 247.903 99.6226C245.162 104.369 243.722 109.751 243.727 115.229C243.727 126.772 249.982 136.911 259.364 142.214V162.024H243.727C183.215 162.024 134.273 210.847 134.273 271.213H118.636C110.036 271.213 103 278.232 103 286.811V333.606C103 342.186 110.036 349.205 118.636 349.205H134.273V364.803C134.273 373.077 137.568 381.012 143.432 386.863C149.297 392.713 157.251 396 165.545 396H384.455C401.811 396 415.727 382.117 415.727 364.803V349.205H431.364C439.964 349.205 447 342.186 447 333.606V286.811C447 278.232 439.964 271.213 431.364 271.213ZM415.727 318.008H384.455V364.803H165.545V318.008H134.273V302.41H165.545V271.213C165.545 228.161 200.571 193.221 243.727 193.221H306.273C349.429 193.221 384.455 228.161 384.455 271.213V302.41H415.727V318.008ZM220.273 263.414L257.175 300.226L238.724 318.632L220.273 300.226L201.822 318.632L183.371 300.226L220.273 263.414ZM329.727 263.414L366.629 300.226L348.178 318.632L329.727 300.226L311.276 318.632L292.825 300.226L329.727 263.414Z" fill="white" stroke="white"/>
</svg>
